<svg width="30" height="28" viewBox="0 0 30 28" fill="none" xmlns="http://www.w3.org/2000/svg">
<path fill-rule="evenodd" clip-rule="evenodd" d="M10.4005 23.2258L13.3317 24.04V22.9753L13.5709 22.7248H15.2458V23.9773V24.854H13.4513L11.238 23.852L10.4005 23.2258Z" fill="#CDBDB2"/>
<path fill-rule="evenodd" clip-rule="evenodd" d="M19.9714 23.2258L17.1002 24.04V22.9753L16.8609 22.7248H15.186V23.9773V24.854H16.9805L19.1938 23.852L19.9714 23.2258Z" fill="#CDBDB2"/>
<path fill-rule="evenodd" clip-rule="evenodd" d="M13.5709 20.9087L13.3317 22.9753L13.6307 22.7248H16.7413L17.1002 22.9753L16.8609 20.9087L16.3823 20.5955L13.9896 20.6582L13.5709 20.9087Z" fill="#393939"/>
<path fill-rule="evenodd" clip-rule="evenodd" d="M11.9558 6.94336L13.3914 10.4503L14.0495 20.6582H16.3823L17.1002 10.4503L18.4162 6.94336H11.9558Z" fill="#F89C35"/>
<path fill-rule="evenodd" clip-rule="evenodd" d="M5.67491 14.6463L4 19.7188L8.18729 19.4683H10.8791V17.2765L10.7594 12.7675L10.1612 13.2685L5.67491 14.6463Z" fill="#F89D35"/>
<path fill-rule="evenodd" clip-rule="evenodd" d="M8.84524 15.2098L13.7503 15.3351L13.212 17.9653L10.8791 17.3391L8.84524 15.2098Z" fill="#D87C30"/>
<path fill-rule="evenodd" clip-rule="evenodd" d="M8.84524 15.2725L10.8791 17.2765V19.2805L8.84524 15.2725Z" fill="#EA8D3A"/>
<path fill-rule="evenodd" clip-rule="evenodd" d="M10.8791 17.3391L13.2718 17.9653L14.0495 20.6582L13.5111 20.9713L10.8791 19.343V17.3391Z" fill="#F89D35"/>
<path fill-rule="evenodd" clip-rule="evenodd" d="M10.879 19.3431L10.4005 23.2258L13.5709 20.9088L10.879 19.3431Z" fill="#EB8F35"/>
<path fill-rule="evenodd" clip-rule="evenodd" d="M13.7503 15.335L14.0495 20.6582L13.1521 17.934L13.7503 15.335Z" fill="#EA8E3A"/>
<path fill-rule="evenodd" clip-rule="evenodd" d="M8.1274 19.4058L10.879 19.3431L10.4005 23.2258L8.1274 19.4058Z" fill="#D87C30"/>
<path fill-rule="evenodd" clip-rule="evenodd" d="M5.316 24.9167L10.4005 23.2257L8.12741 19.4057L4 19.7188L5.316 24.9167Z" fill="#EB8F35"/>
<path fill-rule="evenodd" clip-rule="evenodd" d="M13.3914 10.4503L10.8193 12.7048L8.84524 15.2098L13.7503 15.3977L13.3914 10.4503Z" fill="#E8821E"/>
<path fill-rule="evenodd" clip-rule="evenodd" d="M10.4005 23.2258L13.5709 20.9088L13.3316 22.9127V24.04L11.1782 23.6016L10.4005 23.2258Z" fill="#DFCEC3"/>
<path fill-rule="evenodd" clip-rule="evenodd" d="M19.9714 23.2258L16.8609 20.9088L17.1002 22.9127V24.04L19.2536 23.6016L19.9714 23.2258Z" fill="#DFCEC3"/>
<path fill-rule="evenodd" clip-rule="evenodd" d="M12.4343 16.4623L13.0924 17.9027L10.7594 17.2765L12.4343 16.4623Z" fill="#393939"/>
<path fill-rule="evenodd" clip-rule="evenodd" d="M5.25612 4.00006L13.3914 10.4503L12.0156 6.94336L5.25612 4.00006Z" fill="#E88F35"/>
<path fill-rule="evenodd" clip-rule="evenodd" d="M5.25612 4L4.17939 7.44436L4.77757 11.2018L4.35885 11.4523L4.95703 12.016L4.47848 12.4543L5.13648 13.0806L4.71776 13.4563L5.67485 14.7088L10.1612 13.2684C12.3546 11.4315 13.4313 10.4921 13.3914 10.4503C13.3515 10.4086 10.6398 8.25848 5.25612 4Z" fill="#8E5A30"/>
<path fill-rule="evenodd" clip-rule="evenodd" d="M24.697 14.6463L26.372 19.7188L22.1847 19.4683H19.4929V17.2765L19.6125 12.7675L20.2107 13.2685L24.697 14.6463Z" fill="#F89D35"/>
<path fill-rule="evenodd" clip-rule="evenodd" d="M21.5267 15.2098L16.6216 15.3351L17.1599 17.9653L19.4929 17.3391L21.5267 15.2098Z" fill="#D87C30"/>
<path fill-rule="evenodd" clip-rule="evenodd" d="M21.5267 15.2725L19.4929 17.2765V19.2805L21.5267 15.2725Z" fill="#EA8D3A"/>
<path fill-rule="evenodd" clip-rule="evenodd" d="M19.4929 17.3391L17.1002 17.9653L16.3225 20.6582L16.8609 20.9713L19.4929 19.343V17.3391Z" fill="#F89D35"/>
<path fill-rule="evenodd" clip-rule="evenodd" d="M19.4929 19.3431L19.9714 23.2258L16.8609 20.9713L19.4929 19.3431Z" fill="#EB8F35"/>
<path fill-rule="evenodd" clip-rule="evenodd" d="M16.6216 15.335L16.3225 20.6582L17.2198 17.934L16.6216 15.335Z" fill="#EA8E3A"/>
<path fill-rule="evenodd" clip-rule="evenodd" d="M22.2445 19.4058L19.4929 19.3431L19.9714 23.2258L22.2445 19.4058Z" fill="#D87C30"/>
<path fill-rule="evenodd" clip-rule="evenodd" d="M25.056 24.9167L19.9714 23.2257L22.2445 19.4057L26.372 19.7188L25.056 24.9167Z" fill="#EB8F35"/>
<path fill-rule="evenodd" clip-rule="evenodd" d="M16.9805 10.4503L19.5527 12.7048L21.5267 15.2098L16.6216 15.3977L16.9805 10.4503Z" fill="#E8821E"/>
<path fill-rule="evenodd" clip-rule="evenodd" d="M17.9376 16.4623L17.2796 17.9027L19.6125 17.2765L17.9376 16.4623Z" fill="#393939"/>
<path fill-rule="evenodd" clip-rule="evenodd" d="M25.1158 4.00006L16.9805 10.4503L18.3563 6.94336L25.1158 4.00006Z" fill="#E88F35"/>
<path fill-rule="evenodd" clip-rule="evenodd" d="M25.1158 4L26.1926 7.44436L25.5944 11.2018L26.0131 11.4523L25.4149 12.016L25.8935 12.4543L25.2355 13.0806L25.6542 13.4563L24.6971 14.7088L20.2107 13.2684C18.0174 11.4315 16.9406 10.4921 16.9805 10.4503C17.0204 10.4086 19.7322 8.25848 25.1158 4Z" fill="#8E5A30"/>
</svg>
